<?xml version="1.0" encoding="iso-8859-1"?>
<!-- Generator: Adobe Illustrator 19.0.0, SVG Export Plug-In . SVG Version: 6.00 Build 0)  -->
<svg version="1.1" id="Capa_1" xmlns="http://www.w3.org/2000/svg" xmlns:xlink="http://www.w3.org/1999/xlink" x="0px" y="0px"
	 viewBox="0 0 512 512" style="enable-background:new 0 0 512 512;" xml:space="preserve">
<path style="fill:#5A6060;" d="M256,231.999c-8.284,0-15-6.716-15-15v-120c0-13.785-11.215-25-25-25s-25,11.215-25,25
	c0,30.327-24.673,55-55,55s-55-24.673-55-55V15c0-8.284,6.716-15,15-15s15,6.716,15,15v81.999c0,13.785,11.215,25,25,25
	s25-11.215,25-25c0-30.327,24.673-55,55-55s55,24.673,55,55v120C271,225.283,264.284,231.999,256,231.999z"/>
<path style="fill:#424545;" d="M256,59.309v172.69c8.284,0,15-6.716,15-15v-120C271,82.422,265.289,69.161,256,59.309z"/>
<path style="fill:#2EDDFD;" d="M497,202H15c-8.284,0-15,6.716-15,15v280c0,8.284,6.716,15,15,15h482c8.284,0,15-6.716,15-15V217
	C512,208.716,505.284,202,497,202z"/>
<path style="fill:#29AFE0;" d="M497,202H256v310h241c8.284,0,15-6.716,15-15V217C512,208.716,505.284,202,497,202z"/>
<g>
	<path style="fill:#268DC6;" d="M326,442H186c-8.284,0-15-6.716-15-15s6.716-15,15-15h140c8.284,0,15,6.716,15,15
		S334.284,442,326,442z"/>
	<path style="fill:#268DC6;" d="M437,302H75c-8.284,0-15-6.716-15-15s6.716-15,15-15h362c8.284,0,15,6.716,15,15
		S445.284,302,437,302z"/>
	<path style="fill:#268DC6;" d="M437,372H75c-8.284,0-15-6.716-15-15s6.716-15,15-15h362c8.284,0,15,6.716,15,15
		S445.284,372,437,372z"/>
</g>
<g>
	<path style="fill:#1474AF;" d="M326,412h-70v30h70c8.284,0,15-6.716,15-15S334.284,412,326,412z"/>
	<path style="fill:#1474AF;" d="M437,272H256v30h181c8.284,0,15-6.716,15-15S445.284,272,437,272z"/>
	<path style="fill:#1474AF;" d="M437,342H256v30h181c8.284,0,15-6.716,15-15S445.284,342,437,342z"/>
</g>
<g>
</g>
<g>
</g>
<g>
</g>
<g>
</g>
<g>
</g>
<g>
</g>
<g>
</g>
<g>
</g>
<g>
</g>
<g>
</g>
<g>
</g>
<g>
</g>
<g>
</g>
<g>
</g>
<g>
</g>
</svg>
